<?xml version="1.0" standalone="no"?>
<!DOCTYPE svg PUBLIC "-//W3C//DTD SVG 20010904//EN"
 "http://www.w3.org/TR/2001/REC-SVG-20010904/DTD/svg10.dtd">
<svg version="1.0" xmlns="http://www.w3.org/2000/svg"
 width="480.000000pt" height="480.000000pt" viewBox="0 0 480.000000 480.000000"
 preserveAspectRatio="xMidYMid meet">
<metadata>
Created by potrace 1.11, written by Peter Selinger 2001-2013
</metadata>
<g transform="translate(0.000000,480.000000) scale(0.100000,-0.100000)"
fill="#000000" stroke="none">
<path d="M1633 4003 c-2 -10 -19 -29 -37 -43 -17 -14 -70 -67 -116 -119 -46
-52 -113 -117 -147 -145 -35 -28 -99 -79 -141 -114 -42 -35 -107 -87 -143
-115 -83 -66 -134 -137 -96 -137 6 0 21 14 32 31 19 29 176 163 323 275 64 49
100 84 242 234 34 36 59 56 56 45 -4 -11 -9 -56 -12 -100 -4 -63 -15 -104 -50
-192 -24 -62 -44 -120 -44 -129 0 -36 -54 -214 -92 -304 -22 -52 -46 -108 -53
-125 -7 -16 -21 -100 -30 -185 -9 -85 -21 -184 -25 -220 -4 -36 -13 -132 -19
-215 -7 -82 -19 -206 -27 -274 -14 -115 -13 -125 2 -142 10 -11 15 -21 13 -24
-3 -2 -46 9 -96 25 -50 15 -118 33 -150 40 -32 6 -63 13 -69 15 -8 2 -6 23 7
70 10 36 34 141 54 233 20 92 49 221 65 287 16 66 38 172 50 235 12 63 31 150
42 193 15 58 18 81 9 90 -7 7 -14 7 -19 2 -11 -12 -44 -152 -72 -300 -11 -60
-34 -166 -50 -235 -16 -69 -47 -206 -69 -305 -52 -233 -61 -261 -86 -257 -20
4 -95 62 -130 102 -14 16 -16 24 -8 27 7 3 15 21 18 41 3 20 17 84 30 142 13
58 33 146 44 195 11 50 30 153 41 230 11 77 27 165 35 195 26 95 56 262 50
278 -10 27 -23 -1 -40 -88 -9 -47 -27 -130 -40 -185 -13 -55 -29 -138 -35
-185 -13 -92 -47 -267 -85 -425 -13 -55 -27 -121 -30 -147 -7 -46 -25 -58 -25
-17 0 10 -7 19 -15 19 -10 0 -15 -10 -15 -29 0 -52 39 -298 61 -387 17 -68 19
-88 9 -94 -16 -10 -14 -12 88 -138 83 -104 102 -135 106 -182 1 -19 7 -24 22
-22 13 2 25 -6 34 -23 7 -14 19 -25 27 -25 16 0 17 12 3 26 -8 8 7 28 45 65
64 61 133 173 187 299 19 47 38 92 40 100 3 8 13 -18 23 -58 9 -40 35 -109 56
-153 21 -44 55 -118 75 -165 24 -56 40 -82 47 -75 11 11 -2 47 -79 212 -54
115 -101 267 -90 294 3 8 11 12 18 10 12 -5 109 -14 358 -35 63 -5 158 -15
211 -21 l96 -11 36 -131 c40 -145 77 -301 77 -321 0 -10 -44 -15 -173 -20 -96
-3 -189 -11 -208 -17 -19 -5 -66 -7 -108 -3 -60 5 -73 4 -69 -7 6 -17 128 -17
396 -2 189 11 192 12 192 70 0 38 -41 238 -69 336 -11 37 -17 67 -13 68 26 4
88 -5 149 -22 40 -11 132 -28 205 -39 73 -11 192 -31 263 -45 140 -27 413 -70
510 -80 33 -4 121 -20 195 -36 159 -33 277 -49 376 -49 83 0 134 -15 134 -39
0 -27 -167 -183 -263 -246 -56 -37 -84 -62 -78 -68 16 -16 177 97 276 193 122
119 201 180 230 180 14 0 25 -4 25 -10 0 -5 4 -10 10 -10 12 0 3 260 -12 317
-9 36 -18 46 -72 79 -72 44 -744 381 -832 418 -106 44 -308 143 -335 165 -21
16 -29 36 -39 88 -30 167 -68 251 -144 322 -14 14 -26 29 -26 35 -1 6 -32 49
-71 96 l-70 85 5 130 c3 72 10 144 16 162 9 23 9 61 1 139 -6 59 -11 151 -11
205 0 95 -9 126 -28 93 -8 -15 -10 -15 -15 0 -6 14 -30 5 -155 -59 -82 -41
-154 -75 -161 -75 -6 0 -33 -11 -59 -24 -26 -13 -94 -42 -152 -66 -58 -23
-111 -46 -117 -52 -9 -7 -15 -5 -20 8 -3 11 -20 53 -36 94 -16 41 -42 109 -57
150 -47 129 -74 168 -87 123z m787 -179 c-15 -31 -44 -79 -65 -107 -20 -29
-58 -89 -85 -135 -26 -46 -58 -94 -70 -107 l-22 -23 -91 33 c-51 18 -123 47
-160 64 -37 17 -73 30 -79 28 -6 -1 -12 3 -15 9 -2 6 38 28 89 49 51 20 122
51 158 67 36 17 88 38 115 48 28 10 95 43 150 73 55 31 101 56 102 56 1 1 -11
-24 -27 -55z m-780 16 c0 -5 -4 -10 -10 -10 -5 0 -10 5 -10 10 0 6 5 10 10 10
6 0 10 -4 10 -10z m278 -324 c26 -13 88 -38 137 -56 50 -18 95 -40 101 -48 6
-8 16 -12 22 -8 20 12 86 -30 175 -112 101 -92 124 -119 129 -152 2 -16 9 -24
19 -22 8 1 29 -15 45 -35 53 -67 56 -64 -53 -62 -108 2 -111 4 -203 89 -55 51
-138 121 -166 141 -12 7 -58 44 -104 81 -46 37 -87 66 -92 65 -5 -1 -20 25
-34 58 -14 33 -28 66 -31 73 -7 17 1 15 55 -12z m72 -201 c30 -25 93 -74 140
-110 85 -67 210 -181 210 -193 0 -4 15 -19 34 -34 43 -35 126 -151 126 -177 0
-14 6 -21 20 -21 11 0 20 -2 20 -5 0 -2 14 -54 30 -115 17 -61 30 -113 30
-116 0 -3 -26 15 -57 40 -35 27 -61 42 -68 36 -5 -4 -122 -8 -258 -7 l-249 0
-66 66 c-75 74 -252 223 -346 291 -34 25 -80 60 -104 79 l-42 34 31 23 c17 12
59 34 94 48 34 14 108 52 163 85 56 34 106 61 112 61 20 0 110 42 110 51 0 16
14 9 70 -36z m-475 -355 c61 -45 128 -99 150 -119 22 -21 69 -60 105 -88 36
-28 80 -67 99 -86 l33 -35 -57 -39 c-32 -21 -75 -48 -96 -61 -22 -13 -74 -62
-117 -108 -42 -47 -120 -119 -172 -160 -52 -41 -111 -95 -130 -119 -36 -45
-57 -58 -45 -27 3 9 10 76 15 147 12 177 38 439 50 500 5 28 15 103 21 168 8
82 15 117 23 114 7 -3 61 -42 121 -87z m1127 -2 c63 -73 110 -151 123 -206 29
-123 36 -171 29 -196 -6 -26 8 -37 21 -16 4 6 13 3 23 -9 22 -25 92 -62 267
-140 77 -34 255 -120 395 -190 140 -71 289 -143 330 -161 41 -18 101 -50 132
-71 32 -22 62 -39 67 -39 5 0 14 -6 20 -14 10 -12 2 -21 -43 -50 l-55 -35
-108 48 c-59 26 -149 75 -199 108 -50 34 -170 98 -265 143 -240 112 -265 124
-336 169 -90 57 -280 156 -343 180 l-56 21 -23 102 c-14 57 -30 118 -37 136
l-14 34 88 -3 c85 -3 90 -2 83 29 0 4 -42 7 -93 8 -104 1 -96 -4 -186 123
l-43 61 97 0 c97 0 98 0 126 -32z m-728 -384 c3 -8 11 -57 16 -107 6 -50 13
-101 16 -114 5 -19 2 -23 -15 -23 -12 0 -21 -6 -21 -15 0 -18 21 -20 37 -4 9
9 13 2 18 -27 3 -22 12 -66 20 -99 7 -33 16 -72 20 -87 3 -16 9 -28 14 -28 11
0 30 23 28 34 -2 9 55 41 298 167 44 22 103 58 130 78 28 20 74 52 103 70 28
18 52 37 52 41 0 24 245 -97 453 -224 42 -26 106 -58 142 -71 102 -39 321
-152 425 -220 52 -34 118 -71 145 -83 l50 -22 -45 6 c-25 3 -85 12 -135 19
-49 8 -137 21 -195 30 -58 9 -136 23 -175 31 -38 7 -110 18 -160 24 -49 6
-124 17 -165 25 -41 7 -102 17 -135 20 -88 10 -369 59 -534 94 -152 33 -196
37 -206 22 -7 -13 27 -31 57 -31 13 0 97 -16 188 -35 161 -35 304 -59 660
-110 96 -14 225 -35 285 -45 205 -36 444 -72 573 -86 l62 -7 0 -71 c0 -39 -3
-88 -6 -108 -6 -34 -8 -36 -31 -27 -13 5 -53 9 -89 9 -100 0 -246 19 -389 50
-71 15 -159 31 -195 35 -36 3 -130 17 -210 30 -80 13 -167 27 -195 30 -27 4
-75 13 -107 21 -31 8 -132 25 -225 38 -92 14 -197 34 -233 45 -36 12 -77 21
-91 21 -62 0 -87 18 -107 78 -10 31 -24 58 -30 60 -21 7 -25 -27 -8 -62 9 -19
16 -37 16 -41 0 -4 -20 -4 -46 0 -25 3 -116 13 -202 20 -255 23 -385 36 -416
43 -55 13 -39 29 41 41 43 7 116 23 163 36 47 13 108 26 135 30 28 4 97 18
154 31 72 17 106 21 111 14 5 -7 11 -6 19 3 9 12 8 18 -5 31 -9 9 -24 15 -33
12 -63 -19 -162 -41 -253 -56 -58 -10 -127 -26 -153 -34 -26 -9 -77 -21 -113
-26 -37 -5 -81 -12 -98 -16 -17 -3 -34 -2 -37 3 -9 14 129 155 209 215 38 29
93 79 122 110 63 70 114 117 167 152 22 14 56 37 75 50 42 30 46 31 54 10z
m536 -204 c-14 -10 -61 -38 -105 -61 -138 -72 -308 -159 -311 -159 -5 0 -22
64 -29 108 -7 42 -7 42 24 42 31 0 202 35 341 69 99 25 111 25 80 1z m-1579
-300 c11 0 17 -8 17 -22 -1 -13 4 -54 10 -93 16 -102 27 -382 14 -370 -40 41
-122 147 -118 153 3 5 -6 51 -19 103 -13 52 -31 139 -40 194 -8 55 -18 115
-21 134 l-5 34 72 -67 c40 -36 81 -66 90 -66z m189 -41 c122 -32 204 -59 222
-73 16 -11 15 -17 -8 -82 -51 -143 -134 -295 -197 -361 -33 -35 -63 -63 -67
-63 -4 0 -19 18 -34 40 -22 34 -26 50 -26 113 0 89 -18 324 -29 392 -5 27 -7
53 -5 57 6 9 45 2 144 -23z"/>
<path d="M2333 2959 c-6 -6 -9 -17 -7 -24 6 -14 -137 -112 -211 -144 -75 -33
-175 -94 -175 -108 0 -23 17 -21 60 9 25 16 77 45 117 63 109 51 273 165 273
192 0 7 -4 13 -9 13 -5 0 -15 2 -23 5 -7 3 -19 0 -25 -6z"/>
<path d="M2322 1389 c4 -11 55 -18 224 -31 204 -15 270 -21 509 -49 49 -5 106
-7 125 -4 19 3 73 -1 120 -10 47 -9 110 -19 140 -22 51 -7 53 -8 20 -13 -29
-4 -35 -9 -35 -30 0 -17 7 -26 24 -30 39 -9 39 -31 0 -23 -25 5 -31 3 -27 -8
3 -8 21 -15 42 -17 65 -6 91 40 36 61 -16 6 -30 15 -30 20 0 5 14 6 30 2 23
-5 30 -3 30 8 0 9 6 18 13 20 23 10 -13 24 -77 32 -33 3 -92 13 -129 21 -38 8
-105 14 -150 14 -45 0 -161 9 -257 21 -96 11 -229 24 -295 29 -66 5 -164 12
-219 16 -83 6 -98 5 -94 -7z"/>
<path d="M1100 1375 c0 -7 8 -13 18 -13 48 2 379 -13 395 -18 11 -3 17 0 17 9
0 18 -64 25 -277 32 -128 4 -153 2 -153 -10z"/>
<path d="M2136 1338 c-3 -13 -6 -35 -6 -50 0 -23 5 -27 40 -33 55 -9 72 6 68
59 l-3 41 -46 3 c-41 3 -47 0 -53 -20z m64 -22 c0 -14 -5 -28 -11 -31 -15 -10
-18 -4 -12 28 7 34 23 36 23 3z"/>
<path d="M2267 1343 c-4 -3 -7 -26 -7 -50 0 -36 3 -43 20 -43 13 0 20 7 20 20
0 27 18 25 22 -2 2 -13 10 -24 19 -26 13 -2 18 8 23 42 4 25 4 50 1 56 -7 11
-88 14 -98 3z m53 -23 c0 -5 -2 -10 -4 -10 -3 0 -8 5 -11 10 -3 6 -1 10 4 10
6 0 11 -4 11 -10z"/>
<path d="M2390 1341 c0 -6 7 -14 15 -17 10 -4 15 -20 15 -45 0 -32 3 -39 20
-39 16 0 20 7 20 36 0 27 5 37 20 41 31 8 23 23 -12 23 -18 0 -43 3 -55 6 -14
4 -23 2 -23 -5z"/>
<path d="M2520 1315 c-5 -14 -10 -40 -10 -56 0 -23 4 -29 21 -29 12 0 23 8 26
20 3 11 9 20 14 20 5 0 9 -9 9 -20 0 -13 7 -20 20 -20 17 0 20 7 20 50 0 45
-2 50 -22 50 -13 0 -33 3 -45 6 -18 5 -25 1 -33 -21z m60 -15 c0 -5 -4 -10
-10 -10 -5 0 -10 5 -10 10 0 6 5 10 10 10 6 0 10 -4 10 -10z"/>
<path d="M2645 1286 c-13 -65 -8 -70 74 -76 40 -3 77 -3 81 0 4 3 9 25 11 50
4 40 2 45 -16 45 -16 0 -21 -8 -23 -37 -4 -51 -20 -48 -24 4 -2 31 -8 44 -20
46 -13 3 -17 -6 -20 -40 -2 -24 -7 -43 -13 -43 -5 0 -8 19 -7 43 3 37 1 42
-17 42 -15 0 -22 -9 -26 -34z"/>
<path d="M2836 1295 c-3 -9 -6 -30 -6 -46 0 -23 6 -32 27 -40 15 -5 38 -9 52
-7 24 3 26 7 26 53 l0 50 -46 3 c-36 2 -48 -1 -53 -13z m64 -35 c0 -21 -5 -30
-16 -30 -11 0 -14 5 -10 16 3 9 6 22 6 30 0 8 5 14 10 14 6 0 10 -13 10 -30z"/>
<path d="M2960 1250 c0 -41 3 -50 18 -51 9 0 28 -3 42 -5 13 -2 31 -2 39 1 14
5 14 7 1 15 -8 6 -25 10 -38 10 -20 0 -22 3 -16 40 6 38 5 40 -20 40 -25 0
-26 -3 -26 -50z"/>
<path d="M3103 1282 c-6 -4 -13 -27 -14 -52 -3 -40 -1 -45 19 -48 17 -3 22 2
22 17 0 12 6 21 15 21 8 0 15 5 15 10 0 6 -7 10 -15 10 -8 0 -15 5 -15 10 0 6
16 10 35 10 19 0 35 5 35 10 0 6 -13 10 -29 10 -16 0 -35 2 -43 5 -7 3 -18 1
-25 -3z"/>
<path d="M3297 1263 c-10 -9 -8 -75 2 -91 5 -9 24 -12 52 -10 l44 3 0 50 c0
38 -4 50 -15 50 -10 0 -17 -13 -20 -38 -7 -52 -25 -52 -22 1 3 36 1 42 -16 42
-10 0 -22 -3 -25 -7z"/>
<path d="M3240 1180 c0 -5 5 -10 10 -10 6 0 10 5 10 10 0 6 -4 10 -10 10 -5 0
-10 -4 -10 -10z"/>
</g>
</svg>
